<?xml version='1.0' encoding='iso-8859-1'?>
<!DOCTYPE svg PUBLIC '-//W3C//DTD SVG 1.1//EN' 'http://www.w3.org/Graphics/SVG/1.1/DTD/svg11.dtd'>
<svg version="1.1" xmlns="http://www.w3.org/2000/svg" viewBox="0 0 229.271 229.271" xmlns:xlink="http://www.w3.org/1999/xlink" enable-background="new 0 0 229.271 229.271">
  <path d="m212.867,119.453c-15.382-15.381-37.406-23.075-56.907-25.75l1.997-1.997h22.061c1.989,0 3.896-0.79 5.304-2.197l26.346-26.347c2.929-2.929 2.929-7.678-0.001-10.606-2.928-2.93-7.677-2.929-10.606,0l-24.148,24.15h-22.062c-1.989,0-3.896,0.79-5.303,2.197l-10.778,10.776c0.099-0.889 0.154-1.792 0.154-2.707 0-0.421-0.011-0.84-0.032-1.255l14.92-14.921c1.406-1.407 2.196-3.314 2.196-5.303v-22.063l24.15-24.15c2.93-2.929 2.93-7.677 0.001-10.606-2.929-2.929-7.678-2.93-10.606,0l-26.347,26.346c-1.407,1.406-2.197,3.314-2.197,5.303v22.063l-5.289,5.289c2.041-2.962 3.205-6.415 3.205-10.138 0-9.116-6.949-16.636-16.789-19.2v-30.837c0-4.142-3.357-7.5-7.5-7.5-4.142,0-7.5,3.358-7.5,7.5v30.837c-9.839,2.564-16.789,10.084-16.789,19.2 0,3.724 1.165,7.179 3.208,10.142l-5.293-5.294v-22.062c0-1.989-0.79-3.896-2.197-5.303l-26.347-26.347c-2.929-2.93-7.678-2.929-10.606-1.77636e-15-2.929,2.929-2.929,7.677 0,10.606l24.149,24.15v22.063c0,1.989 0.79,3.897 2.197,5.303l14.921,14.92c-0.021,0.416-0.032,0.835-0.032,1.256 0,0.916 0.056,1.818 0.155,2.708l-10.777-10.777c-1.407-1.407-3.314-2.197-5.304-2.197h-22.064l-24.149-24.15c-2.928-2.929-7.677-2.929-10.606,0-2.929,2.929-2.929,7.677 0,10.606l26.346,26.347c1.406,1.407 3.314,2.197 5.303,2.197h22.063l1.997,1.997c-19.501,2.676-41.526,10.37-56.906,25.75-6.37,6.37-9.878,14.84-9.878,23.849 0,9.01 3.508,17.48 9.878,23.85 6.371,6.37 14.841,9.879 23.85,9.879 9.009,0 17.479-3.509 23.85-9.879l26.273-26.273c0.086,3.138 0.356,6.161 0.782,9.049l-23.371,23.371c-1.407,1.406-2.197,3.314-2.197,5.303v22.063l-15.805,15.805c-2.929,2.929-2.929,7.678 0,10.607 1.464,1.464 3.384,2.197 5.303,2.197 1.919,0 3.839-0.732 5.303-2.197l18.002-18.002c1.407-1.406 2.197-3.314 2.197-5.303v-22.063l15.389-15.389c4.385,9.059 10.997,14.633 18.654,14.633 7.657,0 14.269-5.574 18.653-14.633l15.388,15.389v22.063c0,1.989 0.79,3.897 2.196,5.303l18.002,18.002c1.465,1.464 3.385,2.197 5.304,2.197 1.919,0 3.839-0.732 5.304-2.197 2.929-2.928 2.929-7.678 0-10.607l-15.806-15.805v-22.064c0-1.989-0.79-3.896-2.196-5.303l-23.369-23.371c0.427-2.889 0.695-5.912 0.782-9.049l26.273,26.273c6.37,6.371 14.84,9.879 23.85,9.879 9.01,0 17.48-3.509 23.849-9.879 6.371-6.37 9.88-14.84 9.881-23.85-0.001-9.008-3.509-17.478-9.879-23.847zm-88.942-32.481c0,5.122-4.167,9.289-9.289,9.289-5.122,0-9.289-4.167-9.289-9.289 0-5.122 4.167-9.288 9.289-9.288 5.122,0 9.289,4.166 9.289,9.288zm-9.289-34.581c5.671,0 9.289,3.048 9.289,5.147 0,2.098-3.618,5.146-9.289,5.146-5.67,0-9.289-3.048-9.289-5.146 0-2.099 3.618-5.147 9.289-5.147zm-61.138,104.153c-3.538,3.538-8.241,5.486-13.244,5.486-5.002,0-9.706-1.949-13.244-5.486-3.537-3.537-5.485-8.24-5.485-13.243 0-5.002 1.948-9.705 5.485-13.242 16.597-16.598 43.95-22.487 62.331-22.487 5.116,0 9.114,0.413 12.152,0.975l-6.38,6.38c-0.045,0.043-0.089,0.087-0.132,0.132l-41.483,41.485zm70.427-17.938c1.42109e-14,17.943-6.901,27.345-9.289,27.345-2.387,0-9.289-9.402-9.289-27.345 0-5.081 0.587-10.017 1.702-14.399l7.587-7.587 7.584,7.585c1.117,4.388 1.705,9.325 1.705,14.401zm78.333,17.938c-3.537,3.538-8.239,5.486-13.242,5.486s-9.705-1.948-13.242-5.486l-41.523-41.523c-0.016-0.017-0.032-0.033-0.049-0.049l-6.425-6.425c3.039-0.563 7.037-0.975 12.152-0.975 18.38,0 45.733,5.889 62.332,22.487 3.536,3.537 5.484,8.239 5.484,13.242-2.84217e-14,5.003-1.949,9.706-5.487,13.243z"/>
</svg>
